<?xml version="1.0" encoding="UTF-8" standalone="no"?>
<!-- Created with Inkscape (http://www.inkscape.org/) -->

<svg
   xmlns:dc="http://purl.org/dc/elements/1.1/"
   xmlns:cc="http://creativecommons.org/ns#"
   xmlns:rdf="http://www.w3.org/1999/02/22-rdf-syntax-ns#"
   xmlns:svg="http://www.w3.org/2000/svg"
   xmlns="http://www.w3.org/2000/svg"
   xmlns:sodipodi="http://sodipodi.sourceforge.net/DTD/sodipodi-0.dtd"
   xmlns:inkscape="http://www.inkscape.org/namespaces/inkscape"
   width="29.737595mm"
   height="31.584652mm"
   viewBox="0 0 29.737595 31.584652"
   version="1.1"
   id="svg1021"
   inkscape:version="0.92.4 (5da689c313, 2019-01-14)"
   sodipodi:docname="tree2.svg">
  <defs
     id="defs1015" />
  <sodipodi:namedview
     id="base"
     pagecolor="#ffffff"
     bordercolor="#666666"
     borderopacity="1.0"
     inkscape:pageopacity="0.0"
     inkscape:pageshadow="2"
     inkscape:zoom="1.979899"
     inkscape:cx="65.12328"
     inkscape:cy="41.196135"
     inkscape:document-units="mm"
     inkscape:current-layer="g1613"
     showgrid="false"
     inkscape:window-width="1920"
     inkscape:window-height="1017"
     inkscape:window-x="-8"
     inkscape:window-y="-8"
     inkscape:window-maximized="1" />
  <metadata
     id="metadata1018">
    <rdf:RDF>
      <cc:Work
         rdf:about="">
        <dc:format>image/svg+xml</dc:format>
        <dc:type
           rdf:resource="http://purl.org/dc/dcmitype/StillImage" />
        <dc:title />
      </cc:Work>
    </rdf:RDF>
  </metadata>
  <g
     inkscape:label="Layer 1"
     inkscape:groupmode="layer"
     id="layer1"
     transform="translate(-64.876636,-109.72186)">
    <g
       id="g1613">
      <g
         id="g1645"
         transform="rotate(8.2608091,79.745433,125.51419)">
        <path
           sodipodi:type="star"
           style="fill:#5be75b;fill-opacity:1;stroke:#212121;stroke-width:1.65230262;stroke-linecap:butt;stroke-linejoin:round;stroke-miterlimit:4;stroke-dasharray:none;stroke-opacity:1"
           id="path1035"
           sodipodi:sides="6"
           sodipodi:cx="94.494041"
           sodipodi:cy="108.76785"
           sodipodi:r1="32.289879"
           sodipodi:r2="24.217409"
           sodipodi:arg1="0.52359878"
           sodipodi:arg2="1.0471976"
           inkscape:flatsided="false"
           inkscape:rounded="0.22"
           inkscape:randomized="0"
           d="m 122.4579,124.91279 c -1.82314,3.15776 -12.6974,3.00482 -15.85516,4.82795 -3.15775,1.82314 -8.462436,11.31699 -12.108699,11.31699 -3.646263,0 -8.950948,-9.49385 -12.108705,-11.31699 -3.157756,-1.82313 -14.032019,-1.67019 -15.85515,-4.82795 -1.823131,-3.15775 3.746446,-12.49868 3.746446,-16.14494 0,-3.64626 -5.569577,-12.987181 -3.746446,-16.144937 1.823132,-3.157756 12.697395,-3.004821 15.855152,-4.827952 3.157756,-1.823132 8.462441,-11.316987 12.108704,-11.316987 3.646263,0 8.950948,9.493856 12.108708,11.316988 3.15775,1.823131 14.03202,1.670195 15.85515,4.827951 1.82313,3.157757 -3.74645,12.498677 -3.74645,16.144937 0,3.64627 5.56958,12.98719 3.74645,16.14494 z"
           transform="matrix(0.47940256,0,0,0.48137985,34.444748,73.155536)" />
        <path
           sodipodi:type="star"
           style="fill:#1fd31f;fill-opacity:1;stroke:#212121;stroke-width:2.66742468;stroke-linecap:butt;stroke-linejoin:round;stroke-miterlimit:4;stroke-dasharray:none;stroke-opacity:1"
           id="path1035-6"
           sodipodi:sides="6"
           sodipodi:cx="94.494041"
           sodipodi:cy="108.76785"
           sodipodi:r1="32.289879"
           sodipodi:r2="24.217409"
           sodipodi:arg1="0.52359878"
           sodipodi:arg2="1.0471976"
           inkscape:flatsided="false"
           inkscape:rounded="0.22"
           inkscape:randomized="0"
           d="m 122.4579,124.91279 c -1.82314,3.15776 -12.6974,3.00482 -15.85516,4.82795 -3.15775,1.82314 -8.462436,11.31699 -12.108699,11.31699 -3.646263,0 -8.950948,-9.49385 -12.108705,-11.31699 -3.157756,-1.82313 -14.032019,-1.67019 -15.85515,-4.82795 -1.823131,-3.15775 3.746446,-12.49868 3.746446,-16.14494 0,-3.64626 -5.569577,-12.987181 -3.746446,-16.144937 1.823132,-3.157756 12.697395,-3.004821 15.855152,-4.827952 3.157756,-1.823132 8.462441,-11.316987 12.108704,-11.316987 3.646263,0 8.950948,9.493856 12.108708,11.316988 3.15775,1.823131 14.03202,1.670195 15.85515,4.827951 1.82313,3.157757 -3.74645,12.498677 -3.74645,16.144937 0,3.64627 5.56958,12.98719 3.74645,16.14494 z"
           transform="matrix(0.28708054,-0.07473244,0.07524018,0.28885977,44.664678,101.04214)" />
        <path
           sodipodi:type="star"
           style="fill:#138013;fill-opacity:1;stroke:#212121;stroke-width:5.27900934;stroke-linecap:butt;stroke-linejoin:round;stroke-miterlimit:4;stroke-dasharray:none;stroke-opacity:1"
           id="path1035-6-5"
           sodipodi:sides="6"
           sodipodi:cx="94.494041"
           sodipodi:cy="108.76785"
           sodipodi:r1="32.289879"
           sodipodi:r2="24.217409"
           sodipodi:arg1="0.52359878"
           sodipodi:arg2="1.0471976"
           inkscape:flatsided="false"
           inkscape:rounded="0.22"
           inkscape:randomized="0"
           d="m 122.4579,124.91279 c -1.82314,3.15776 -12.6974,3.00482 -15.85516,4.82795 -3.15775,1.82314 -8.462436,11.31699 -12.108699,11.31699 -3.646263,0 -8.950948,-9.49385 -12.108705,-11.31699 -3.157756,-1.82313 -14.032019,-1.67019 -15.85515,-4.82795 -1.823131,-3.15775 3.746446,-12.49868 3.746446,-16.14494 0,-3.64626 -5.569577,-12.987181 -3.746446,-16.144937 1.823132,-3.157756 12.697395,-3.004821 15.855152,-4.827952 3.157756,-1.823132 8.462441,-11.316987 12.108704,-11.316987 3.646263,0 8.950948,9.493856 12.108708,11.316988 3.15775,1.823131 14.03202,1.670195 15.85515,4.827951 1.82313,3.157757 -3.74645,12.498677 -3.74645,16.144937 0,3.64627 5.56958,12.98719 3.74645,16.14494 z"
           transform="matrix(0.14986906,-2.1426634e-4,1.837558e-4,0.15085156,65.866845,108.76808)" />
      </g>
    </g>
  </g>
</svg>
