<?xml version="1.0" encoding="UTF-8" standalone="no"?>
<!-- Created with Inkscape (http://www.inkscape.org/) -->

<svg
   xmlns:dc="http://purl.org/dc/elements/1.1/"
   xmlns:cc="http://creativecommons.org/ns#"
   xmlns:rdf="http://www.w3.org/1999/02/22-rdf-syntax-ns#"
   xmlns:svg="http://www.w3.org/2000/svg"
   xmlns="http://www.w3.org/2000/svg"
   xmlns:sodipodi="http://sodipodi.sourceforge.net/DTD/sodipodi-0.dtd"
   xmlns:inkscape="http://www.inkscape.org/namespaces/inkscape"
   width="25.74114mm"
   height="29.346201mm"
   viewBox="0 0 25.74114 29.346201"
   version="1.1"
   id="svg1021"
   inkscape:version="0.92.4 (5da689c313, 2019-01-14)"
   sodipodi:docname="tree.svg">
  <defs
     id="defs1015" />
  <sodipodi:namedview
     id="base"
     pagecolor="#ffffff"
     bordercolor="#666666"
     borderopacity="1.0"
     inkscape:pageopacity="0.0"
     inkscape:pageshadow="2"
     inkscape:zoom="1.979899"
     inkscape:cx="61.775321"
     inkscape:cy="41.759201"
     inkscape:document-units="mm"
     inkscape:current-layer="layer1"
     showgrid="false"
     inkscape:window-width="1920"
     inkscape:window-height="1017"
     inkscape:window-x="-8"
     inkscape:window-y="-8"
     inkscape:window-maximized="1" />
  <metadata
     id="metadata1018">
    <rdf:RDF>
      <cc:Work
         rdf:about="">
        <dc:format>image/svg+xml</dc:format>
        <dc:type
           rdf:resource="http://purl.org/dc/dcmitype/StillImage" />
        <dc:title></dc:title>
      </cc:Work>
    </rdf:RDF>
  </metadata>
  <g
     inkscape:label="Layer 1"
     inkscape:groupmode="layer"
     id="layer1"
     transform="translate(-65.76245,-112.10929)">
    <g
       id="g1613">
      <path
         transform="matrix(0.44014239,0,0,0.44209964,37.042187,78.69616)"
         d="m 122.4579,124.91279 c -1.82314,3.15776 -12.6974,3.00482 -15.85516,4.82795 -3.15775,1.82314 -8.462436,11.31699 -12.108699,11.31699 -3.646263,0 -8.950948,-9.49385 -12.108705,-11.31699 -3.157756,-1.82313 -14.032019,-1.67019 -15.85515,-4.82795 -1.823131,-3.15775 3.746446,-12.49868 3.746446,-16.14494 0,-3.64626 -5.569577,-12.987181 -3.746446,-16.144937 1.823132,-3.157756 12.697395,-3.004821 15.855152,-4.827952 3.157756,-1.823132 8.462441,-11.316987 12.108704,-11.316987 3.646263,0 8.950948,9.493856 12.108708,11.316988 3.15775,1.823131 14.03202,1.670195 15.85515,4.827951 1.82313,3.157757 -3.74645,12.498677 -3.74645,16.144937 0,3.64627 5.56958,12.98719 3.74645,16.14494 z"
         inkscape:randomized="0"
         inkscape:rounded="0.22"
         inkscape:flatsided="false"
         sodipodi:arg2="1.0471976"
         sodipodi:arg1="0.52359878"
         sodipodi:r2="24.217409"
         sodipodi:r1="32.289879"
         sodipodi:cy="108.76785"
         sodipodi:cx="94.494041"
         sodipodi:sides="6"
         id="path1035"
         style="fill:#5be75b;fill-opacity:1;stroke:#212121;stroke-width:1.79939723;stroke-linecap:butt;stroke-linejoin:round;stroke-miterlimit:4;stroke-dasharray:none;stroke-opacity:1"
         sodipodi:type="star" />
      <path
         transform="matrix(0.26357037,-0.06863434,0.06907846,0.26528905,46.425166,104.30724)"
         d="m 122.4579,124.91279 c -1.82314,3.15776 -12.6974,3.00482 -15.85516,4.82795 -3.15775,1.82314 -8.462436,11.31699 -12.108699,11.31699 -3.646263,0 -8.950948,-9.49385 -12.108705,-11.31699 -3.157756,-1.82313 -14.032019,-1.67019 -15.85515,-4.82795 -1.823131,-3.15775 3.746446,-12.49868 3.746446,-16.14494 0,-3.64626 -5.569577,-12.987181 -3.746446,-16.144937 1.823132,-3.157756 12.697395,-3.004821 15.855152,-4.827952 3.157756,-1.823132 8.462441,-11.316987 12.108704,-11.316987 3.646263,0 8.950948,9.493856 12.108708,11.316988 3.15775,1.823131 14.03202,1.670195 15.85515,4.827951 1.82313,3.157757 -3.74645,12.498677 -3.74645,16.144937 0,3.64627 5.56958,12.98719 3.74645,16.14494 z"
         inkscape:randomized="0"
         inkscape:rounded="0.22"
         inkscape:flatsided="false"
         sodipodi:arg2="1.0471976"
         sodipodi:arg1="0.52359878"
         sodipodi:r2="24.217409"
         sodipodi:r1="32.289879"
         sodipodi:cy="108.76785"
         sodipodi:cx="94.494041"
         sodipodi:sides="6"
         id="path1035-6"
         style="fill:#1fd31f;fill-opacity:1;stroke:#212121;stroke-width:2.90488935;stroke-linecap:butt;stroke-linejoin:round;stroke-miterlimit:4;stroke-dasharray:none;stroke-opacity:1"
         sodipodi:type="star" />
      <path
         transform="matrix(0.13759569,-1.9678238e-4,1.6870731e-4,0.13854219,65.891004,111.40275)"
         d="m 122.4579,124.91279 c -1.82314,3.15776 -12.6974,3.00482 -15.85516,4.82795 -3.15775,1.82314 -8.462436,11.31699 -12.108699,11.31699 -3.646263,0 -8.950948,-9.49385 -12.108705,-11.31699 -3.157756,-1.82313 -14.032019,-1.67019 -15.85515,-4.82795 -1.823131,-3.15775 3.746446,-12.49868 3.746446,-16.14494 0,-3.64626 -5.569577,-12.987181 -3.746446,-16.144937 1.823132,-3.157756 12.697395,-3.004821 15.855152,-4.827952 3.157756,-1.823132 8.462441,-11.316987 12.108704,-11.316987 3.646263,0 8.950948,9.493856 12.108708,11.316988 3.15775,1.823131 14.03202,1.670195 15.85515,4.827951 1.82313,3.157757 -3.74645,12.498677 -3.74645,16.144937 0,3.64627 5.56958,12.98719 3.74645,16.14494 z"
         inkscape:randomized="0"
         inkscape:rounded="0.22"
         inkscape:flatsided="false"
         sodipodi:arg2="1.0471976"
         sodipodi:arg1="0.52359878"
         sodipodi:r2="24.217409"
         sodipodi:r1="32.289879"
         sodipodi:cy="108.76785"
         sodipodi:cx="94.494041"
         sodipodi:sides="6"
         id="path1035-6-5"
         style="fill:#138013;fill-opacity:1;stroke:#212121;stroke-width:5.74896812;stroke-linecap:butt;stroke-linejoin:round;stroke-miterlimit:4;stroke-dasharray:none;stroke-opacity:1"
         sodipodi:type="star" />
    </g>
  </g>
</svg>
